# xmcd
#
# Track frame offsets:
# 150
# 8746
# 18401
# 36972
# 51705
# 66224
# 81765
# 98741
# 118709
# 138934
# 153597
# 172210
# 190671
# 205898
# 220188
# 232923
# 247543
# 263739
# 283637
# 300038
#
# Disc length: 4251 seconds
#
#
# Revision: 0
# Processed by: cddbd v1.5.1PL0 Copyright (c) Steve Scherf et al.
# Submitted via: FreeRIP 2.941 
#
DISCID=0a109914
DTITLE=Vários - Festchê 2 - CD1
DYEAR=2004
DGENRE=Gauchao
TTITLE0=Abertura
TTITLE1=Omair Trindade - Memória dos Tempos
TTITLE2=Os Serranos - Nossa Vaneira
TTITLE3=Tchê Barbaridade - Lá Vem o Tchê
TTITLE4=Os Monarcas - To no Rodeio
TTITLE5=Mano Lima - Mal Parido
TTITLE6=Chiquito e Bordoneio - Remelexo
TTITLE7=César Oliveira e Rogério Melo - Roçando as Viria
TTITLE8=Grupo Rodeio - A Voz do Rio Grande
TTITLE9=Walther Moraes - Bochincho
TTITLE10=Grupo Reponte - Tribo da Bombacha
TTITLE11=Délcio Tavares - Cavalo Preto
TTITLE12=Quero-Quero - Ela Chorou de Amor
TTITLE13=Os Mateadores - Romance de Um Peão Pasteiro
TTITLE14=Grupo Querência - Festa Gaúcha
TTITLE15=Luiz Carlos Borges - O Revorve do Tropeiro
TTITLE16=Os Galponneros - É o Pegadão
TTITLE17=Balanço do Tchê - Andei Falando com as Estrelas
TTITLE18=Tchê Chaleira - Vem cá Guria
TTITLE19=Renato Borghetti - Sem Vergonha
EXTD=
EXTT0=
EXTT1=
EXTT2=
EXTT3=
EXTT4=
EXTT5=
EXTT6=
EXTT7=
EXTT8=
EXTT9=
EXTT10=
EXTT11=
EXTT12=
EXTT13=
EXTT14=
EXTT15=
EXTT16=
EXTT17=
EXTT18=
EXTT19=
PLAYORDER=
